<?xml version="1.0" encoding="UTF-8"?>
<svg id="Layer_1" xmlns="http://www.w3.org/2000/svg" version="1.1" xmlns:xlink="http://www.w3.org/1999/xlink" viewBox="0 0 610 143">
  <!-- Generator: Adobe Illustrator 29.7.1, SVG Export Plug-In . SVG Version: 2.1.1 Build 8)  -->
  <defs>
    <style>
      .st0 {
        fill: #00c7f3;
      }

      .st1 {
        fill: #00abd1;
      }

      .st2 {
        fill: url(#linear-gradient);
      }
    </style>
    <linearGradient id="linear-gradient" x1="44.54" y1="70.74" x2="126.33" y2="70.74" gradientUnits="userSpaceOnUse">
      <stop offset="0" stop-color="#00c7f3"/>
      <stop offset=".67" stop-color="#00abd1"/>
    </linearGradient>
  </defs>
  <path class="st0" d="M195.75,61.45c-4.23-2.99-10.7-4.48-19.42-4.48-4.4,0-8.66.25-12.77.76-4.11.51-8.13,1.25-12.05,2.23l-2.83,14.32c3.39-1.6,6.91-2.81,10.55-3.62,3.64-.8,7.4-1.2,11.28-1.2,4.3,0,7.55.58,9.73,1.75,2.19,1.18,3.28,2.92,3.28,5.23,0,.17-.01.36-.02.57-.02.21-.08.56-.19,1.05l-.21,1.47h-11.07c-10.91,0-19.27,1.99-25.06,5.96-5.79,3.97-8.68,9.7-8.68,17.18,0,4.9,1.63,8.79,4.91,11.68,3.27,2.89,7.68,4.33,13.25,4.33,4.02,0,7.74-.83,11.17-2.49,3.43-1.67,6.68-4.25,9.76-7.74l-1.57,8.71h18.79l6.56-33.54c.31-1.64.55-3.17.7-4.59.16-1.41.24-2.72.24-3.91,0-6.12-2.12-10.68-6.35-13.67ZM180.43,92.86c-.88,4.23-2.61,7.51-5.2,9.84-2.59,2.33-5.8,3.49-9.65,3.49-2.49,0-4.44-.61-5.85-1.84-1.42-1.22-2.13-2.9-2.13-5.03,0-2.84,1.2-4.98,3.6-6.43,2.39-1.45,5.93-2.18,10.62-2.18h9.03l-.42,2.15Z"/>
  <path class="st0" d="M256.5,58.44l-22.15,41.03-7.6-41.03h-17.32l11.7,58.77h19.89l34.53-58.77h-19.05Z"/>
  <path class="st0" d="M328.58,101.94l12.28-63.08h-20.2l-15.27,78.35h55.67l2.89-15.27h-35.37Z"/>
  <path class="st0" d="M430.99,63.37c-4.67-4.23-10.98-6.35-18.92-6.35-6.12,0-11.69,1.08-16.71,3.25-5.02,2.17-9.34,5.35-12.94,9.55-3.04,3.5-5.36,7.36-6.95,11.57-1.59,4.22-2.39,8.57-2.39,13.04,0,7.74,2.49,13.72,7.48,17.95,4.98,4.23,12.06,6.35,21.23,6.35,4.68,0,9.29-.41,13.82-1.23,4.53-.82,9.09-2.08,13.67-3.76l2.89-14.58c-4.83,2.34-9.44,4.11-13.83,5.3s-8.56,1.78-12.51,1.78c-4.59,0-8.02-.94-10.32-2.83-2.29-1.89-3.43-4.74-3.43-8.56,0-.21.01-.51.05-.91.03-.41.05-.71.05-.92h43.98l.63-2.99c.42-1.86.72-3.56.91-5.12.2-1.56.29-3.03.29-4.43,0-7.18-2.33-12.88-7-17.11ZM419.29,80.03c-.06.47-.13.94-.24,1.39h-24.3c1.37-3.92,3.34-6.88,5.91-8.89,2.57-2.02,5.69-3.02,9.36-3.02,2.87,0,5.15.82,6.83,2.47,1.68,1.64,2.52,3.86,2.52,6.66,0,.45-.03.92-.08,1.39Z"/>
  <path class="st0" d="M501.71,61.51c-4.23-3-10.71-4.49-19.42-4.49-4.4,0-8.66.25-12.77.76s-8.13,1.25-12.05,2.23l-2.83,14.33c3.39-1.61,6.91-2.82,10.55-3.62,3.64-.81,7.4-1.21,11.28-1.21,4.3,0,7.55.58,9.73,1.76,2.19,1.17,3.28,2.91,3.28,5.22,0,.17-.01.37-.02.58-.02.2-.08.56-.19,1.04l-.21,1.47h-11.07c-10.91,0-19.27,1.99-25.06,5.96-5.79,3.97-8.68,9.7-8.68,17.19,0,4.89,1.63,8.78,4.91,11.67,3.27,2.89,7.68,4.33,13.25,4.33,4.02,0,7.74-.83,11.17-2.49,3.43-1.66,6.68-4.24,9.76-7.74l-1.57,8.71h18.79l6.55-33.53c.32-1.65.56-3.18.71-4.59.16-1.42.24-2.72.24-3.91,0-6.13-2.12-10.68-6.35-13.67ZM486.39,92.91c-.88,4.24-2.61,7.52-5.2,9.84-2.59,2.33-5.81,3.49-9.65,3.49-2.49,0-4.44-.61-5.86-1.84-1.41-1.22-2.12-2.9-2.12-5.03,0-2.84,1.2-4.98,3.59-6.43,2.4-1.45,5.94-2.18,10.63-2.18h9.03l-.42,2.15Z"/>
  <path class="st0" d="M569.31,35.56l-6.09,31.48c-1.96-3.43-4.34-5.95-7.16-7.58-2.82-1.63-6.24-2.44-10.26-2.44-4.58,0-8.88,1.14-12.88,3.41-4.01,2.27-7.6,5.62-10.79,10.02-2.51,3.5-4.45,7.39-5.79,11.65-1.35,4.27-2.02,8.66-2.02,13.17,0,7.25,1.92,12.97,5.77,17.16,3.85,4.2,9.07,6.3,15.69,6.3,3.74,0,7.19-.81,10.34-2.44,3.14-1.63,6.15-4.15,9.02-7.58l-1.73,8.5h18.94l15.9-81.65h-18.94ZM555.22,98.42c-3.03,4.45-6.95,6.67-11.78,6.67-3.15,0-5.56-.94-7.22-2.81-1.66-1.87-2.49-4.59-2.49-8.16,0-6.86,1.54-12.48,4.62-16.87,3.08-4.39,6.99-6.59,11.75-6.59,3.05,0,5.42.91,7.11,2.73,1.7,1.82,2.55,4.36,2.55,7.61,0,7.17-1.51,12.98-4.54,17.42Z"/>
  <path class="st0" d="M289.01,35.29l-3.05,15.37h19l3-15.37h-18.95ZM284.59,58.24l-11.48,58.97h18.9l11.53-58.97h-18.95Z"/>
  <polygon class="st1" points="65.21 77.19 55.42 117.2 21.75 117.2 42.36 33.1 65.21 77.19"/>
  <polygon class="st2" points="126.33 117.2 92.71 117.2 67.38 68.34 65.58 64.87 44.54 24.27 78.16 24.27 126.33 117.2"/>
  <g>
    <polygon class="st0" points="153.13 24.27 119.28 55.61 99.2 48.31 153.13 24.27"/>
    <polygon class="st1" points="153.13 24.27 130.09 78.2 123.1 59.26 153.13 24.27"/>
  </g>
</svg>